<svg width="115" height="64" viewBox="0 0 115 64" fill="none" xmlns="http://www.w3.org/2000/svg">
<g clip-path="url(#clip0_15765_29723)">
<path d="M32.9577 16.5735L17.5587 25.5997C17.177 25.826 16.7025 25.8291 16.3117 25.6119L12.262 23.3454C11.9852 23.191 11.6445 23.3913 11.6445 23.711V27.3263C11.6445 27.4777 11.7267 27.6184 11.8574 27.6918L16.2858 30.1724C16.6721 30.3896 17.1466 30.385 17.5328 30.1602L31.6727 21.6861C31.7518 21.6387 31.8141 21.5653 31.8476 21.4796L33.5523 17.0874C33.6953 16.7188 33.2953 16.3747 32.9562 16.575L32.9577 16.5735Z" fill="#DE2826"/>
<path d="M28.5567 27.7194L17.5587 34.3353C17.177 34.5616 16.7025 34.5647 16.3117 34.3475L12.262 32.0811C11.9852 31.9266 11.6445 32.1269 11.6445 32.4466V44.4596C11.6445 44.611 11.7267 44.7517 11.8574 44.8251L16.2858 47.3057C16.6721 47.5228 17.1466 47.5183 17.5328 47.2934L22.2684 44.5177C22.3962 44.4427 22.4753 44.3051 22.4753 44.1568V36.2439C22.4753 36.0956 22.5543 35.9579 22.6821 35.883L27.1819 33.2449C27.2641 33.1959 27.3279 33.121 27.3614 33.0308L29.1589 28.2256C29.2973 27.8555 28.8943 27.516 28.5567 27.7194Z" fill="#DE2826"/>
<path d="M53.109 21.3298H42.0776C41.9103 21.3298 41.7734 21.4674 41.7734 21.6356V37.5408C41.7734 37.7091 41.9103 37.8467 42.0776 37.8467H45.6285C45.7958 37.8467 45.9327 37.7091 45.9327 37.5408V31.3837C45.9327 31.2996 46.0011 31.2307 46.0847 31.2307H51.1032C51.2705 31.2307 51.4073 31.0931 51.4073 30.9249V28.2516C51.4073 28.0834 51.2705 27.9457 51.1032 27.9457H46.0847C46.0011 27.9457 45.9327 27.8769 45.9327 27.7928V25.0033C45.9327 24.9191 46.0011 24.8503 46.0847 24.8503H53.1106C53.2778 24.8503 53.4147 24.7127 53.4147 24.5445V21.6356C53.4147 21.4674 53.2778 21.3298 53.1106 21.3298H53.109Z" fill="#212322"/>
<path d="M57.5245 21.3313C56.898 21.3313 56.3733 21.5408 55.9506 21.9568C55.5278 22.3743 55.3164 22.8897 55.3164 23.5045C55.3164 24.1193 55.5278 24.6546 55.9506 25.0629C56.3733 25.4728 56.898 25.6777 57.5245 25.6777C58.1511 25.6777 58.656 25.4697 59.0863 25.0522C59.5167 24.6347 59.7326 24.1193 59.7326 23.5045C59.7326 22.8897 59.5167 22.3743 59.0863 21.9568C58.656 21.5393 58.1343 21.3313 57.5245 21.3313Z" fill="#212322"/>
<path d="M59.2604 26.8339H55.7612C55.5932 26.8339 55.457 26.9708 55.457 27.1398V37.5408C55.457 37.7098 55.5932 37.8467 55.7612 37.8467H59.2604C59.4284 37.8467 59.5645 37.7098 59.5645 37.5408V27.1398C59.5645 26.9708 59.4284 26.8339 59.2604 26.8339Z" fill="#212322"/>
<path d="M70.0999 34.3995C69.6908 34.5555 69.2559 34.6351 68.8727 34.6351C68.2933 34.6351 67.8903 34.502 67.6622 34.2328C67.4356 33.9652 67.3215 33.5248 67.3215 32.91V29.1891C67.3215 29.1049 67.39 29.0361 67.4736 29.0361H69.6011C69.7684 29.0361 69.9053 28.8985 69.9053 28.7303V26.4592C69.9053 26.291 69.7684 26.1533 69.6011 26.1533H67.4736C67.39 26.1533 67.3215 26.0845 67.3215 26.0004V22.9998C67.3215 22.8316 67.1847 22.6939 67.0174 22.6939H63.4908C63.3235 22.6939 63.1866 22.8316 63.1866 22.9998V26.0004C63.1866 26.0845 63.1182 26.1533 63.0345 26.1533H61.894C61.7267 26.1533 61.5898 26.291 61.5898 26.4592V28.7303C61.5898 28.8985 61.7267 29.0361 61.894 29.0361H63.0345C63.1182 29.0361 63.1866 29.1049 63.1866 29.1891V33.4773C63.1866 34.8323 63.5425 35.8983 64.2557 36.6783C64.9689 37.4582 66.0213 37.8482 67.4158 37.8482C68.0895 37.8482 68.6567 37.8054 69.119 37.7182C69.5099 37.6448 69.9463 37.5347 70.3174 37.3879C70.4345 37.342 70.5136 37.2288 70.5136 37.1019V34.6855C70.5136 34.4714 70.3007 34.3246 70.1014 34.4011L70.0999 34.3995Z" fill="#212322"/>
<path d="M87.3237 21.3344H83.8184C83.6511 21.3344 83.5142 21.472 83.5142 21.6402V30.6068C83.5142 31.711 83.2207 32.5475 82.6368 33.1149C82.0513 33.6823 81.1525 33.9667 80.1093 33.9667C79.0661 33.9667 78.1536 33.6823 77.562 33.1149C76.969 32.5475 76.6724 31.711 76.6724 30.6068V21.6402C76.6724 21.472 76.5355 21.3344 76.3683 21.3344H72.8706C72.7033 21.3344 72.5664 21.472 72.5664 21.6402V30.5594C72.5664 32.7524 73.199 34.5158 74.4643 35.8478C75.7295 37.1814 77.6107 37.8467 80.1093 37.8467C82.6079 37.8467 84.486 37.1845 85.7436 35.8585C87.0013 34.5341 87.6293 32.7662 87.6293 30.5578V21.6387C87.6293 21.4705 87.4925 21.3328 87.3252 21.3328L87.3237 21.3344Z" fill="#212322"/>
<path d="M101.649 22.8285C100.503 21.8192 98.9736 21.3145 97.0605 21.3145H89.9799C89.8126 21.3145 89.6758 21.4521 89.6758 21.6204V37.5485C89.6758 37.7167 89.8126 37.8543 89.9799 37.8543H93.5369C93.7042 37.8543 93.8411 37.7167 93.8411 37.5485V33.0614C93.8411 32.9773 93.9095 32.9084 93.9932 32.9084H97.062C98.9918 32.9084 100.525 32.3992 101.662 31.3822C102.8 30.3651 103.369 28.9245 103.369 27.0633C103.369 25.2021 102.795 23.8379 101.652 22.827L101.649 22.8285ZM98.3668 28.8633C97.8878 29.2105 97.2339 29.3833 96.402 29.3833H93.9932C93.9095 29.3833 93.8411 29.3145 93.8411 29.2304V24.9926C93.8411 24.9084 93.9095 24.8396 93.9932 24.8396H96.402C97.2491 24.8396 97.9076 24.9971 98.379 25.3122C98.8489 25.6272 99.0846 26.2114 99.0846 27.0633C99.0846 27.9151 98.8459 28.5146 98.3668 28.8618V28.8633Z" fill="#212322"/>
<path d="M42.6346 47.3745C42.2924 47.3118 42.0096 47.2246 41.7891 47.1145V45.914C42.0734 46.0547 42.37 46.1602 42.6787 46.2306C42.9874 46.3009 43.2809 46.3361 43.5607 46.3361C43.8193 46.3361 44.0139 46.2978 44.1462 46.2229C44.2785 46.148 44.3439 46.0394 44.3439 45.8987C44.3439 45.7932 44.3089 45.7014 44.2375 45.6234C44.166 45.5454 44.0626 45.4735 43.9257 45.4078C43.7888 45.342 43.5744 45.2518 43.2855 45.1355C42.7745 44.9291 42.4019 44.6997 42.1708 44.4489C41.9396 44.1981 41.8225 43.8876 41.8225 43.5206C41.8225 43.2177 41.9107 42.9486 42.0871 42.7131C42.2635 42.476 42.5099 42.2925 42.8262 42.1625C43.1425 42.031 43.506 41.9667 43.9181 41.9667C44.2557 41.9667 44.5553 41.9927 44.8199 42.0417C45.083 42.0921 45.337 42.1732 45.5787 42.2833V43.4533C45.1149 43.2223 44.6481 43.1061 44.1797 43.1061C43.9272 43.1061 43.725 43.1459 43.5744 43.2239C43.4239 43.3019 43.3493 43.4135 43.3493 43.5603C43.3493 43.7071 43.4254 43.8249 43.579 43.9151C43.7311 44.0054 44.0139 44.1292 44.4245 44.2852C44.7986 44.432 45.0906 44.5743 45.2989 44.715C45.5073 44.8557 45.6593 45.0193 45.7536 45.2059C45.8479 45.3925 45.8966 45.6295 45.8966 45.9155C45.8966 46.4034 45.7111 46.7857 45.3385 47.0595C44.9659 47.3332 44.4123 47.4708 43.6733 47.4708C43.325 47.4708 42.9798 47.4387 42.6376 47.376L42.6346 47.3745Z" fill="#B1B1B1"/>
<path d="M48.7305 41.9652H50.093L52.2768 47.4693H50.8595L50.4215 46.3361H48.402L47.964 47.4693H46.5391L48.732 41.9652H48.7305ZM50.0763 45.264L49.4102 43.4135L48.7365 45.264H50.0748H50.0763Z" fill="#B1B1B1"/>
<path d="M53.1914 41.9652H54.5768V46.2963H57.2609V47.4693H53.1914V41.9652Z" fill="#B1B1B1"/>
<path d="M58.1719 41.9652H62.3098V43.1382H59.5573V44.169H61.6361V45.264H59.5573V46.2948H62.3098V47.4678H58.1719V41.9637V41.9652Z" fill="#B1B1B1"/>
</g>
<defs>
<clipPath id="clip0_15765_29723">
<rect width="115" height="64" fill="white"/>
</clipPath>
</defs>
</svg>
